<svg xmlns="http://www.w3.org/2000/svg" width="28" height="28" viewBox="0 0 28 28">
  <path id="Path_17495" data-name="Path 17495" d="M28.6,18.8a1.4,1.4,0,0,0-1.4,1.4v5.6a1.4,1.4,0,0,1-1.4,1.4H6.2a1.4,1.4,0,0,1-1.4-1.4V20.2a1.4,1.4,0,0,0-2.8,0v5.6A4.2,4.2,0,0,0,6.2,30H25.8A4.2,4.2,0,0,0,30,25.8V20.2A1.4,1.4,0,0,0,28.6,18.8ZM15.006,21.194a1.4,1.4,0,0,0,.462.294,1.316,1.316,0,0,0,1.064,0,1.4,1.4,0,0,0,.462-.294l5.6-5.6a1.406,1.406,0,1,0-1.988-1.988L17.4,16.826V3.4a1.4,1.4,0,1,0-2.8,0V16.826l-3.206-3.22a1.406,1.406,0,0,0-1.988,1.988Z" transform="translate(-2 -2)" fill="#124b80"/>
</svg>
