<svg xmlns="http://www.w3.org/2000/svg" width="34.773" height="34" viewBox="0 0 34.773 34">
  <path id="_65e301cd2583eadbebc7193e0d6fdef0" data-name="65e301cd2583eadbebc7193e0d6fdef0" d="M15.523,1006.362a3.5,3.5,0,0,0-3.477,3.477V1011a.771.771,0,0,0,.773.773h.773a.771.771,0,0,0,.773-.773v-1.159a1.132,1.132,0,0,1,1.159-1.159H28.276l.012,5.01a1.159,1.159,0,0,0,1.156,1.157l5.01.012v22.024a1.132,1.132,0,0,1-1.159,1.159H15.523a1.132,1.132,0,0,1-1.159-1.159v-12.749a.771.771,0,0,0-.773-.773h-.773a.771.771,0,0,0-.773.773v12.75a3.5,3.5,0,0,0,3.477,3.477H33.3a3.5,3.5,0,0,0,3.477-3.477v-23.558a1.159,1.159,0,0,0-.34-.819l-5.806-5.806a1.159,1.159,0,0,0-.819-.34Zm-11.977,6.955A1.542,1.542,0,0,0,2,1014.862v5.409a1.542,1.542,0,0,0,1.545,1.545H22.864a1.542,1.542,0,0,0,1.545-1.545v-5.409a1.542,1.542,0,0,0-1.545-1.545H3.545Zm14.128,2a2.322,2.322,0,0,1,.943.2c.082-.178.172-.2.371-.2.236,0,.294.075.3.385l.015.692v.039c0,.273-.088.383-.369.383s-.325-.162-.413-.34a.8.8,0,0,0-.753-.45c-.45,0-.723.236-.723.532,0,.376.413.412,1.159.567.893.185,1.313.584,1.313,1.314,0,.886-.621,1.379-1.742,1.379a2.972,2.972,0,0,1-1.085-.178.334.334,0,0,1-.34.178c-.3,0-.4-.088-.412-.39l-.023-.85v-.036c0-.31.1-.429.406-.429.281,0,.317.206.45.465a1.014,1.014,0,0,0,1,.553c.435,0,.7-.184.7-.523,0-.465-.412-.465-1.224-.68s-1.239-.487-1.239-1.217A1.476,1.476,0,0,1,17.673,1015.315Zm-10.294.119H8.3c.31,0,.457.1.457.4a.356.356,0,0,1-.368.4l.485.686.473-.687a.356.356,0,0,1-.353-.4c0-.3.139-.4.45-.4h.8c.311,0,.458.1.458.4a.365.365,0,0,1-.414.406.456.456,0,0,1-.1-.008l-.9,1.247,1.063,1.43c.029,0,.059-.008.089-.008a.366.366,0,0,1,.413.406c0,.3-.149.4-.459.4H9.43c-.309,0-.457-.1-.457-.4a.35.35,0,0,1,.384-.4l-.554-.8-.568.8c.274.008.406.134.406.4,0,.3-.148.4-.457.4H7.341c-.309,0-.45-.1-.45-.4a.36.36,0,0,1,.406-.406c.03,0,.06.008.09.008l1-1.349-.96-1.328c-.03,0-.058.008-.088.008a.365.365,0,0,1-.413-.406c0-.3.147-.4.457-.4Zm4.283,0H13.2c.3,0,.442.111.442.4s-.147.4-.442.4h-.317v2.684h1.637v-.641c0-.31.1-.458.391-.458s.391.155.391.458v1.107c0,.258-.073.324-.376.324H11.662c-.3,0-.435-.1-.435-.4s.14-.391.435-.391h.317v-2.684h-.317c-.3,0-.435-.1-.435-.4S11.367,1015.434,11.662,1015.434Zm4.247,18.746a.771.771,0,0,0-.773.773v.773a.771.771,0,0,0,.773.773h2.318a.771.771,0,0,0,.773-.773v-.773a.771.771,0,0,0-.773-.773Zm4.636,0a.771.771,0,0,0-.773.773v.773a.771.771,0,0,0,.773.773h2.318a.771.771,0,0,0,.773-.773v-.773a.771.771,0,0,0-.773-.773Zm4.636,0a.771.771,0,0,0-.773.773v.773a.771.771,0,0,0,.773.773H27.5a.771.771,0,0,0,.773-.773v-.773a.771.771,0,0,0-.773-.773Zm4.636,0a.771.771,0,0,0-.773.773v.773a.771.771,0,0,0,.773.773h2.318a.771.771,0,0,0,.773-.773v-.773a.771.771,0,0,0-.773-.773Z" transform="translate(-2 -1006.362)" fill="#124b80"/>
</svg>
