<svg xmlns="http://www.w3.org/2000/svg" width="240.451" height="313" viewBox="0 0 240.451 313">
  <g id="Symbols" transform="translate(0)" opacity="0.135">
    <g id="Scene_Plants" data-name="Scene/Plants" transform="translate(0)">
      <path id="Leaf-Bottom" d="M127.02,11.529c3.48-1.5,7.9.683,5.78,5.031-2.27,4.655-9.743,4.323-13.957,4.007.423,0,2.012-4.295,2.512-4.93A14.32,14.32,0,0,1,127.02,11.529ZM83.466,94.845C82.572,95.532,83.393,94.91,83.466,94.845Zm45.693-61.61a4.03,4.03,0,0,1,.143,6.034c-2.044,2.058-5.565,1.794-8.186,1.446-1.185-.158-7.515-1-5.954-1.961a5.161,5.161,0,0,0-.632.262q-.249.753-.518,1.5c.036.024.067.049.106.073-.042-.021-.072-.043-.109-.065A58.4,58.4,0,0,1,106.7,54.537a13.741,13.741,0,0,1,3.336-.706c3.338-.246,10.179,2.7,6.238,6.918-3.778,4.046-9.077-.785-13.081-1.623A189.081,189.081,0,0,1,89.615,74.22a1.079,1.079,0,0,1,.631.584c1.863-.826,3.823-2.044,5.522-2.312,2.451-.387,7.437-.438,9.155,1.828,2.113,2.786-.415,4.826-3.1,5.2-3.9.54-8.853-1.611-12.5-3.08a1.227,1.227,0,0,1-1.145-.45l-.24-.092c-4.845,4.8-9.857,9.418-14.834,13.934h.154a12.86,12.86,0,0,1,4.085-1.611c3.359-.635,7.262-.434,9.828,2.107s3.287,6.759.372,9.3c-5.833,5.08-13.372-7.6-16.145-8.253-5.055,4.539-10.37,8.748-15.759,12.863a9.184,9.184,0,0,1,1.827-.274c5.085-.219,16.636,6.606,10.107,12.384-5.69,5.035-11.416-5.53-15.589-9.338-5.076,3.833-10.178,7.636-15.15,11.6a13.841,13.841,0,0,1,7.871.463c2.829,1.021,7.354,3.434,5.333,7.22-2.055,3.85-7.531,1.762-10.366.357-1.546-.766-4.6-3.239-7.332-4.357a95.531,95.531,0,0,0-20.4,23.328,83.6,83.6,0,0,0-8.08,17.989C2.586,167.617.143,174.334.283,179.646c-1.435-10.693,2.829-23.222,7.2-32.483a79.664,79.664,0,0,1,16.36-22.427c-1.32-4.8-14.158-12.288-6.041-16.255,4.31-2.1,8.4,1.971,9.1,6.089.482,2.83-.66,6.294-1.819,8.955q3.112-2.99,6.432-5.767c3.051-2.559,6.168-5.035,9.311-7.477-4.711-4.915-8.7-18.47-1.945-20.3,9.979-2.691,4.3,15.215,3.441,18.582a.534.534,0,0,1-.448-.2c.039.314.085.651.145.991,6.015-4.647,12.11-9.193,18.024-13.964a25.946,25.946,0,0,1-1.819-2.681,29.061,29.061,0,0,1-3.521-5.743c-1.418-3.271-2.68-8.437,1.62-10.092,4.677-1.8,6.547,4.062,6.4,7.495a45.572,45.572,0,0,1-1.326,6.9c-.143.72.091,4.011-.824,2.553a6.944,6.944,0,0,1-.031,1.162q1.593-1.292,3.165-2.611a1.235,1.235,0,0,1-.068-.4A1.187,1.187,0,0,1,65.4,90.953q2.078-1.777,4.109-3.613c2.863-2.6,5.77-5.278,8.661-8.016-.568-.542-.294-1.237-.822-1.808s-1.6-.927-2.231-1.463a15.8,15.8,0,0,1-3.73-5.129c-1.468-3.081-3.24-9.476,1.584-10.655,4.972-1.218,7.139,4.962,7.255,8.761a96.608,96.608,0,0,1-1.417,9.685c5.351-5.09,10.629-10.385,15.443-15.8-1.369-.084-5.106-3.094-5.851-3.9-1.818-1.968-4.647-6.255-1.174-8.263,3.088-1.781,6.622,1.218,7.756,4.012a38.3,38.3,0,0,1,.667,6.556c2-2.3,3.906-4.617,5.692-6.949q1.787-2.325,3.368-4.782a2.239,2.239,0,0,1-.625-.683C99.146,47.8,93.2,39.693,99.2,37.3c2.853-1.14,5.734,1.672,6.985,3.917a28.972,28.972,0,0,1,.868,4.5A93.366,93.366,0,0,0,114.5,28.494a1.088,1.088,0,0,1-.8-1.053c-2.346-1.505-4.2-2.753-5.744-5.492-.962-1.7-2.654-5.562.475-6.315,4.072-.979,6.27,5.278,6.44,8.312.02.352-.035,1.371-.1,2.3a1.353,1.353,0,0,1,.418.029c1.118-3.706,2.052-7.469,2.836-11.247-2.152-.819-1.928-12.333-.385-13.893,3.449-3.494,5.47,1.92,5.149,4.709a18.493,18.493,0,0,1-3.95,8.781c-.206.272-.151.261-.179-.134a.79.79,0,0,1-.212.431,50.017,50.017,0,0,1-.08,5.061,117.166,117.166,0,0,1-2.194,13.091q-.355,1.57-.785,3.111a25.528,25.528,0,0,1,5.229-2.981C123.089,32.252,126.862,31.281,129.159,33.235ZM0,179.646a12.388,12.388,0,0,0,.691,4.146A32.251,32.251,0,0,1,0,179.646Z" transform="translate(97.661 6.98) rotate(-3)" fill="#8b1201" fill-rule="evenodd"/>
      <g id="Plant-Right" transform="translate(0 36.198)" opacity="0.7">
        <path id="Leaf-Me-Alone_" data-name="Leaf-Me-Alone!" d="M46.227.028c-9.433.5-20.459,7.195-20.388,17.5.052,7.486,1.053,14.85.706,22.367a60.232,60.232,0,0,1-3.614,17.542C20.98,62.876,16.267,67.829,15.5,73.5a23.865,23.865,0,0,0,2.06,11.849c1.88,4.042,1.08,3.791-1.418,7.61-4.895,7.485-9.211,15.087-11.924,23.7-3.907,12.4-5.829,26.621-2.552,39.4.417,1.623,1.327,7.509,3.641,7.684,2.584.2,1.043-3.063.793-4.142-1.6-6.883-3-12.9-2.707-20.091,1.143-27.751,18.856-47.817,29.184-72.353.576-1.27,1.758-4.274,2.591-6.261,1.314-3.138,2.356-8.954,4.326-11.385,3.711-4.58.774,4.152.134,5.827-.81,2.119-1.709,4.375-2.571,6.248-3.931,8.675-8.339,18.157-12.4,27.1C46.564,91.313,58.928,64.01,62.892,46.5,66.158,32.069,68.394-1.1,46.227.028" transform="translate(113.069 74.863) rotate(6)" fill="#8b1201" fill-rule="evenodd"/>
        <path id="Leaf-Me-Alone_2" data-name="Leaf-Me-Alone!" d="M141.609,78.084c15.769,1.251,25.893,11.657,30.605,26.211,2.54,7.843,2.831,15.9,4.242,23.961,2.123,12.127,6.692,21.316,15.62,29.956a30.148,30.148,0,0,1,6.252,8.362,35.617,35.617,0,0,1,7.218,10.315c2.349,5.185,3.014,11.406.3,16.575a16.991,16.991,0,0,1-4.434,5.447,106.747,106.747,0,0,1,10.5,47.947c-.264,9.927-.749,19.859-1.314,29.774-.152,2.662-1.019,7.059-2.321,2.594-1.192-4.084.3-10.5.441-14.762.673-20.784,1.248-39.682-7.308-59.1q-1.346-3.053-2.839-6.057a2.014,2.014,0,0,1-.167-.114c-.038.029-.072.06-.11.089-.063-.113-.15-.247-.251-.4a5.356,5.356,0,0,1-.768-1.077c-.759-1.052-1.618-2.287-1.622-2.964,0-.005,0-.013,0-.019A279.8,279.8,0,0,0,178.1,170c.046.058-6.721-9.157-5.675-4.061.5,2.456,5.482,7.132,7.493,9.734a242.5,242.5,0,0,1,14.01,20.21c.584.336,1.409,1.983,2.006,3.211.329.622.637,1.249.939,1.8-15.378,5.081-27.341-5.154-35.5-17.057-.01-.014-.019-.028-.028-.042a51.728,51.728,0,0,0-8.2-9.155c-5.3-4.339-10.976-5.1-17.225-7.239-17.041-5.823-24.287-27.908-26.588-44.3-2.6-18.488,10.1-46.837,32.275-45.014" transform="translate(-109 -24.374)" fill="#8b1201" fill-rule="evenodd"/>
        <path id="Leaf-Me-Alone_3" data-name="Leaf-Me-Alone!" d="M67.773,209.162C49.4,194.734,38.407,172.686,29.219,151.8,18.957,128.467,10.967,104.435,7.244,79.2,4.8,62.624,2,45.989.639,29.278A178.112,178.112,0,0,1,.028,11.41C.038,10.921.3-2.375,2.721.374,4.1,1.937,2.477,14.163,2.5,16.157a255.71,255.71,0,0,0,3.028,33.5c2.684,18.288,4.7,36.573,9.122,54.548a62.315,62.315,0,0,0,2.3,8.086c1.085,2.735.036,1.622,2.431,2.429,2.326.784,4.99.251,7.437,1.3,9.707,4.167,16.24,17.455,21.086,26.1,5.542,9.881,9.584,20.68,13.108,31.4a232.2,232.2,0,0,1,6.493,23.87,63.913,63.913,0,0,0,1.8,7.716A17.846,17.846,0,0,1,70.46,207.5c.128,1.29-.541,2.153-.453,3.24q-1.134-.764-2.235-1.577" transform="translate(101.763 218.496) rotate(-172)" fill="#8b1201" fill-rule="evenodd"/>
        <path id="Base" d="M138.878,328A50.439,50.439,0,0,1,38,328" transform="translate(13.13 -101.637)" fill="#8b1201" fill-rule="evenodd"/>
        <path id="Leaf-Me-Alone_4" data-name="Leaf-Me-Alone!" d="M179.429,308.381h2.665a89.4,89.4,0,0,0-.988-9.988c-2.138-12.646-8.823-31.22-23.485-33.273a37.8,37.8,0,0,0-4.941.052,8.909,8.909,0,0,0-3.77-1.113c-12.483-.92-26.424,9.151-32.446,19.631-4.854,8.45-4.036,19.546-1.038,28.523,2.008,6.01,6.39,14.579,13.7,14.663,9.143.1,9.583-11.2,9.76-17.8.235-8.782,1.345-16.433,8.265-22.419,1.613-1.395,3.376-2.621,5-4,2.551-2.152,5.37-4.356,5.7-7.917.454-4.913-2.32-5.8-6.554-4.884-.722.155-7.993,3.418-6.916.839.329-.788,1.529-1.412,3.044-1.88,3.921-.426,8.6-.921,9.941-.625,14.507,3.183,20.155,23.277,21.655,36.044C179.184,305.614,179.315,307,179.429,308.381Z" transform="translate(-81.907 -81.858)" fill="#8b1201" fill-rule="evenodd"/>
      </g>
    </g>
  </g>
</svg>
