<svg xmlns="http://www.w3.org/2000/svg" width="41" height="41" viewBox="0 0 41 41">
  <g id="Group_13" data-name="Group 13" transform="translate(-728.952 -52.952)">
    <g id="Group_11" data-name="Group 11" transform="translate(729 53)">
      <circle id="Ellipse_1" data-name="Ellipse 1" cx="20.5" cy="20.5" r="20.5" transform="translate(-0.048 -0.048)" fill="#fdebe8"/>
    </g>
    <g id="Group_12" data-name="Group 12" transform="translate(738.874 62.874)">
      <path id="Path_5" data-name="Path 5" d="M19.165,12.344h-4.7v4.7h4.7ZM18.224,2V3.881H10.7V2H8.821V3.881h-.94A1.872,1.872,0,0,0,6.009,5.761L6,18.926a1.88,1.88,0,0,0,1.881,1.881H21.045a1.88,1.88,0,0,0,1.881-1.881V5.761a1.88,1.88,0,0,0-1.881-1.881h-.94V2Zm2.821,16.926H7.881V8.582H21.045Z" transform="translate(-3.179 -1.06)" fill="#8b1201"/>
      <path id="Path_6" data-name="Path 6" d="M0,0H22.568V22.568H0Z" fill="none"/>
    </g>
  </g>
</svg>
