<svg xmlns="http://www.w3.org/2000/svg" width="23" height="23" viewBox="0 0 23 23">
  <path id="Path_7" data-name="Path 7" d="M13.5,2A11.5,11.5,0,1,1,2,13.5,11.5,11.5,0,0,1,13.5,2Zm0,16.292a1.438,1.438,0,1,0,1.437,1.438A1.438,1.438,0,0,0,13.5,18.292Zm0-11.5a3.833,3.833,0,0,0-3.833,3.833.958.958,0,0,0,1.917,0,1.917,1.917,0,0,1,3.833,0,2.224,2.224,0,0,1-.7,1.72l-.222.24-.506.517a4.164,4.164,0,0,0-1.445,3.273.958.958,0,1,0,1.917,0,2.224,2.224,0,0,1,.7-1.72l.222-.24.506-.517a4.164,4.164,0,0,0,1.445-3.273A3.833,3.833,0,0,0,13.5,6.792Z" transform="translate(-2 -2)" fill="#a0766f"/>
</svg>
