<svg xmlns="http://www.w3.org/2000/svg" width="23.991" height="24" viewBox="0 0 23.991 24">
  <g id="Group_14" data-name="Group 14" transform="translate(-0.009)">
    <path id="Path_8" data-name="Path 8" d="M21,0H10A3.009,3.009,0,0,0,7,3V9h9a3,3,0,0,1,0,6H7v6a3.009,3.009,0,0,0,3,3H21a3.009,3.009,0,0,0,3-3V3A3.009,3.009,0,0,0,21,0Z" fill="#a0766f"/>
    <path id="Path_9" data-name="Path 9" d="M3.41,13H16a1,1,0,0,0,0-2H3.41l1.3-1.29A1,1,0,1,0,3.29,8.29l-3,3a1.037,1.037,0,0,0,0,1.42l3,3a1.03,1.03,0,0,0,1.42,0,1.008,1.008,0,0,0,0-1.42Z" fill="#a0766f"/>
  </g>
</svg>
