<svg id="icon-events-6522" xmlns="http://www.w3.org/2000/svg" width="17.921" height="18.3" viewBox="0 0 17.921 18.3">
  <g id="Group_35" data-name="Group 35" transform="translate(0.156 2.412)">
    <path id="Path_25" data-name="Path 25" d="M31.188,57.362H16.7a1.56,1.56,0,0,1-1.56-1.56V43.19a1.56,1.56,0,0,1,1.56-1.56H31.188a1.56,1.56,0,0,1,1.56,1.56V55.8A1.56,1.56,0,0,1,31.188,57.362Z" transform="translate(-15.14 -41.63)" fill="#8b1201"/>
  </g>
  <g id="Group_36" data-name="Group 36" transform="translate(0.156 2.412)">
    <path id="Path_26" data-name="Path 26" d="M15.14,43.189V45.6H32.749V43.189a1.56,1.56,0,0,0-1.56-1.56H16.7A1.56,1.56,0,0,0,15.14,43.189Z" transform="translate(-15.14 -41.629)" fill="#8b1201"/>
  </g>
  <g id="Group_37" data-name="Group 37" transform="translate(0 2.256)">
    <path id="Path_27" data-name="Path 27" d="M29.344,55.673H14.856a1.718,1.718,0,0,1-1.716-1.716V41.345a1.718,1.718,0,0,1,1.716-1.716H29.344a1.718,1.718,0,0,1,1.716,1.716V53.957A1.718,1.718,0,0,1,29.344,55.673ZM14.856,39.941a1.406,1.406,0,0,0-1.4,1.4V53.957a1.406,1.406,0,0,0,1.4,1.4H29.344a1.406,1.406,0,0,0,1.4-1.4V41.345a1.406,1.406,0,0,0-1.4-1.4Z" transform="translate(-13.14 -39.629)" fill="#a0766f"/>
  </g>
  <g id="Group_38" data-name="Group 38" transform="translate(0 2.256)">
    <path id="Path_28" data-name="Path 28" d="M30.9,43.912H13.3a.156.156,0,0,1-.156-.156V41.345a1.718,1.718,0,0,1,1.716-1.716H29.344a1.718,1.718,0,0,1,1.716,1.716v2.411A.156.156,0,0,1,30.9,43.912ZM13.452,43.6h17.3V41.345a1.406,1.406,0,0,0-1.4-1.4H14.856a1.406,1.406,0,0,0-1.4,1.4Z" transform="translate(-13.14 -39.629)" fill="#a0766f"/>
  </g>
  <g id="Group_39" data-name="Group 39" transform="translate(4.355 7.818)">
    <path id="Path_29" data-name="Path 29" d="M74.119,111.27l.945,1.914a.618.618,0,0,0,.465.338l2.112.307a.618.618,0,0,1,.342,1.054l-1.528,1.49a.618.618,0,0,0-.178.547l.361,2.1a.618.618,0,0,1-.9.651l-1.889-.993a.618.618,0,0,0-.575,0l-1.889.993a.618.618,0,0,1-.9-.651l.361-2.1a.618.618,0,0,0-.178-.547l-1.528-1.49a.618.618,0,0,1,.342-1.054l2.112-.307a.618.618,0,0,0,.465-.338l.945-1.914A.618.618,0,0,1,74.119,111.27Z" transform="translate(-68.959 -110.925)" fill="#fff"/>
  </g>
  <g id="Group_40" data-name="Group 40" transform="translate(4.199 7.662)">
    <path id="Path_30" data-name="Path 30" d="M69.257,118.06a.775.775,0,0,1-.762-.905l.361-2.1a.462.462,0,0,0-.133-.409l-1.528-1.49a.774.774,0,0,1,.429-1.32l2.112-.307a.462.462,0,0,0,.348-.253l.945-1.914a.774.774,0,0,1,1.388,0l.945,1.914a.462.462,0,0,0,.348.253l2.112.307a.774.774,0,0,1,.429,1.32l-1.528,1.49a.462.462,0,0,0-.133.409l.361,2.1a.774.774,0,0,1-1.123.816l-1.889-.993a.462.462,0,0,0-.43,0l-1.889.993A.775.775,0,0,1,69.257,118.06Zm2.465-8.821a.453.453,0,0,0-.414.257l-.945,1.914a.774.774,0,0,1-.583.423l-2.112.307a.462.462,0,0,0-.256.788l1.528,1.49a.774.774,0,0,1,.223.685l-.361,2.1a.462.462,0,0,0,.67.487l1.889-.993a.774.774,0,0,1,.72,0l1.889.993a.462.462,0,0,0,.67-.487l-.361-2.1a.774.774,0,0,1,.223-.685l1.528-1.49a.462.462,0,0,0-.256-.788l-2.112-.307a.774.774,0,0,1-.583-.423l-.945-1.914A.453.453,0,0,0,71.722,109.239Z" transform="translate(-66.961 -108.927)" fill="#a0766f"/>
  </g>
  <g id="Group_41" data-name="Group 41" transform="translate(12.746 0.156)">
    <path id="Path_31" data-name="Path 31" d="M177.575,17.283h-.043a1.017,1.017,0,0,1-1.016-1.016V13.725a1.017,1.017,0,0,1,1.016-1.016h.043a1.017,1.017,0,0,1,1.016,1.016v2.541A1.016,1.016,0,0,1,177.575,17.283Z" transform="translate(-176.516 -12.709)" fill="#8b1201"/>
  </g>
  <g id="Group_42" data-name="Group 42" transform="translate(3.102 0.156)">
    <path id="Path_32" data-name="Path 32" d="M53.936,17.283h-.043a1.017,1.017,0,0,1-1.016-1.016V13.725a1.017,1.017,0,0,1,1.016-1.016h.043a1.017,1.017,0,0,1,1.016,1.016v2.541A1.016,1.016,0,0,1,53.936,17.283Z" transform="translate(-52.877 -12.709)" fill="#8b1201"/>
  </g>
  <g id="Group_43" data-name="Group 43" transform="translate(12.59)">
    <path id="Path_33" data-name="Path 33" d="M175.731,15.6h-.043a1.174,1.174,0,0,1-1.173-1.172V11.881a1.174,1.174,0,0,1,1.173-1.172h.043a1.174,1.174,0,0,1,1.172,1.172v2.541A1.174,1.174,0,0,1,175.731,15.6Zm-.043-4.574a.861.861,0,0,0-.86.86v2.541a.861.861,0,0,0,.86.86h.043a.861.861,0,0,0,.86-.86V11.881a.861.861,0,0,0-.86-.86Z" transform="translate(-174.516 -10.709)" fill="#a0766f"/>
  </g>
  <g id="Group_44" data-name="Group 44" transform="translate(2.945)">
    <path id="Path_34" data-name="Path 34" d="M52.092,15.6H52.05a1.174,1.174,0,0,1-1.173-1.172V11.881a1.174,1.174,0,0,1,1.173-1.172h.043a1.174,1.174,0,0,1,1.172,1.172v2.541A1.174,1.174,0,0,1,52.092,15.6Zm-.043-4.574a.861.861,0,0,0-.86.86v2.541a.861.861,0,0,0,.86.86h.043a.861.861,0,0,0,.86-.86V11.881a.861.861,0,0,0-.86-.86Z" transform="translate(-50.877 -10.709)" fill="#a0766f"/>
  </g>
  <g id="Group_45" data-name="Group 45" transform="translate(12.59)">
    <path id="Path_35" data-name="Path 35" d="M175.731,15.6h-.043a1.174,1.174,0,0,1-1.173-1.172V11.881a1.174,1.174,0,0,1,1.173-1.172h.043a1.174,1.174,0,0,1,1.172,1.172v2.541A1.174,1.174,0,0,1,175.731,15.6Zm-.043-4.574a.861.861,0,0,0-.86.86v2.541a.861.861,0,0,0,.86.86h.043a.861.861,0,0,0,.86-.86V11.881a.861.861,0,0,0-.86-.86Z" transform="translate(-174.516 -10.709)" fill="#a0766f"/>
  </g>
  <g id="Group_46" data-name="Group 46" transform="translate(7.924 0.156)">
    <path id="Path_36" data-name="Path 36" d="M115.755,17.283h-.043a1.017,1.017,0,0,1-1.016-1.016V13.725a1.017,1.017,0,0,1,1.016-1.016h.043a1.017,1.017,0,0,1,1.016,1.016v2.541A1.016,1.016,0,0,1,115.755,17.283Z" transform="translate(-114.696 -12.709)" fill="#8b1201"/>
  </g>
  <g id="Group_47" data-name="Group 47" transform="translate(7.768)">
    <path id="Path_37" data-name="Path 37" d="M113.911,15.6h-.043a1.174,1.174,0,0,1-1.172-1.172V11.881a1.174,1.174,0,0,1,1.172-1.172h.043a1.174,1.174,0,0,1,1.173,1.172v2.541A1.174,1.174,0,0,1,113.911,15.6Zm-.043-4.574a.861.861,0,0,0-.86.86v2.541a.861.861,0,0,0,.86.86h.043a.861.861,0,0,0,.86-.86V11.881a.861.861,0,0,0-.86-.86Z" transform="translate(-112.696 -10.709)" fill="#a0766f"/>
  </g>
  <g id="Group_48" data-name="Group 48" transform="translate(7.768)">
    <path id="Path_38" data-name="Path 38" d="M113.911,15.6h-.043a1.174,1.174,0,0,1-1.172-1.172V11.881a1.174,1.174,0,0,1,1.172-1.172h.043a1.174,1.174,0,0,1,1.173,1.172v2.541A1.174,1.174,0,0,1,113.911,15.6Zm-.043-4.574a.861.861,0,0,0-.86.86v2.541a.861.861,0,0,0,.86.86h.043a.861.861,0,0,0,.86-.86V11.881a.861.861,0,0,0-.86-.86Z" transform="translate(-112.696 -10.709)" fill="#a0766f"/>
  </g>
</svg>
