<svg xmlns="http://www.w3.org/2000/svg" width="27" height="27" viewBox="0 0 27 27">
  <g id="Group_10234" data-name="Group 10234" transform="translate(0 0.264)">
    <rect id="Rectangle_6715" data-name="Rectangle 6715" width="27" height="27" transform="translate(0 -0.264)" fill="none"/>
    <path id="Path_17499" data-name="Path 17499" d="M19.819,59.455a6.266,6.266,0,1,0-6.934,0,10.049,10.049,0,0,0-4.736,3.639.836.836,0,0,0,.683,1.317h15.04a.836.836,0,0,0,.683-1.317A10.049,10.049,0,0,0,19.819,59.455Z" transform="translate(-7.161 -42.959)" fill="#a1756e"/>
    <path id="Path_17500" data-name="Path 17500" d="M157.925,63.114a10.049,10.049,0,0,0-4.736-3.638,6.266,6.266,0,0,0-5.167-11.249.835.835,0,0,0-.444,1.3,7.92,7.92,0,0,1,.4,8.865.836.836,0,0,0,.214,1.107,11.821,11.821,0,0,1,.913.753c.015.016.03.033.047.048a11.7,11.7,0,0,1,2.661,3.645.835.835,0,0,0,.757.482h4.671a.836.836,0,0,0,.683-1.317Z" transform="translate(-132.017 -42.979)" fill="#a1756e"/>
  </g>
</svg>
