<svg id="Component_9_1" data-name="Component 9 – 1" xmlns="http://www.w3.org/2000/svg" width="19.802" height="16.962" viewBox="0 0 19.802 16.962">
  <path id="Path_19" data-name="Path 19" d="M19.8,24.859a3.284,3.284,0,1,1-3.283-3.2A3.242,3.242,0,0,1,19.8,24.859ZM2.259,26.979H1.129A1.128,1.128,0,0,1,0,25.849v-1.98A1.13,1.13,0,0,1,1.129,22.74H2.259Z" transform="translate(0 -16.377)" fill="#8c1201"/>
  <path id="Path_20" data-name="Path 20" d="M16.027,45.142H15.56V44.39h.467a.124.124,0,0,1,.124.124v.507A.124.124,0,0,1,16.027,45.142Z" transform="translate(-10.744 -32.074)" fill="#8c1201"/>
  <path id="Path_21" data-name="Path 21" d="M10.189,44.9h0A1.089,1.089,0,0,1,9.1,43.811v-4.9h2.175v4.9A1.083,1.083,0,0,1,10.189,44.9Z" transform="translate(-6.283 -28.291)" fill="#8c1201"/>
  <path id="Path_22" data-name="Path 22" d="M5.411,28.052l5.167,0v-6.4H5.417a.919.919,0,0,0-.931.9L4.48,27.143A.92.92,0,0,0,5.411,28.052Z" transform="translate(-3.094 -16.377)" fill="#8c1201"/>
  <path id="Path_23" data-name="Path 23" d="M32.2,22.581,22.99,18.135v-6.4L32.2,7.29Z" transform="translate(-15.875 -6.453)" fill="#8c1201"/>
  <path id="Path_24" data-name="Path 24" d="M51.477,21.552h0a.847.847,0,0,1-.857-.835V5.425a.847.847,0,0,1,.857-.835h0a.847.847,0,0,1,.857.835V20.719A.846.846,0,0,1,51.477,21.552Z" transform="translate(-34.957 -4.59)" fill="#8c1201"/>
</svg>
