<svg id="Component_11_1" data-name="Component 11 – 1" xmlns="http://www.w3.org/2000/svg" width="24" height="24" viewBox="0 0 24 24">
  <path id="Path_1" data-name="Path 1" d="M0,0H24V24H0Z" fill="none"/>
  <g id="Group_10184" data-name="Group 10184" transform="translate(1 -2.42)">
    <path id="Path_17233" data-name="Path 17233" d="M19.007,8.246V8.07H17.98v.352h1.2A.174.174,0,0,1,19.007,8.246Zm-13.99,0V8.07H3.989v.352h1.2A.174.174,0,0,1,5.017,8.246ZM22.245,8.07H.755A.757.757,0,0,0,0,8.825V25.112A1.54,1.54,0,0,0,1.538,26.65h19.92A1.54,1.54,0,0,0,23,25.112V8.825A.752.752,0,0,0,22.245,8.07Zm.4,17.042A1.187,1.187,0,0,1,21.462,26.3H1.538A1.187,1.187,0,0,1,.352,25.112V8.825a.4.4,0,0,1,.4-.4H22.245a.4.4,0,0,1,.4.4V25.112ZM5.017,8.246V8.07H3.989v.352h1.2A.174.174,0,0,1,5.017,8.246Zm13.99,0V8.07H17.98v.352h1.2A.174.174,0,0,1,19.007,8.246Z" transform="translate(0 -2.46)" fill="#8b1201"/>
    <path id="Path_17234" data-name="Path 17234" d="M23.276,9.459v3.3H.98v-3.3a.4.4,0,0,1,.4-.4H4.261v.934a.9.9,0,0,0,.9.9.176.176,0,1,0,0-.352.546.546,0,0,1-.546-.546V9.06H18.252v.934a.9.9,0,0,0,.9.9.176.176,0,1,0,0-.352.546.546,0,0,1-.546-.546V9.06h4.269A.4.4,0,0,1,23.276,9.459ZM7.017,20.319v4.589H5.982V22.357A2.508,2.508,0,0,1,7.017,20.319Zm5.247,2.041v2.552H11.219v-4.6A2.528,2.528,0,0,1,12.264,22.36Zm7.155-1.736a.3.3,0,0,1-.09.241l-.9.906a2.112,2.112,0,0,0-.625,1.506v1.632H14.687V23.28a2.112,2.112,0,0,0-.625-1.506l-.906-.909a.292.292,0,0,1-.09-.241.308.308,0,0,1,.133-.23.323.323,0,0,1,.413.054l1.872,1.876a1.1,1.1,0,0,0,1.488.029l1.9-1.9a.326.326,0,0,1,.413-.05A.3.3,0,0,1,19.42,20.625Z" transform="translate(-0.628 -3.094)" fill="#8b1201"/>
    <path id="Path_17235" data-name="Path 17235" d="M19.363,4.891v.895a.174.174,0,0,1-.176.176.176.176,0,0,1-.176-.176V4.891a.309.309,0,0,0-.309-.309h-.41a.309.309,0,0,0-.309.309V6.9a.546.546,0,0,0,.546.546.176.176,0,1,1,0,.352.9.9,0,0,1-.9-.9V4.891a.664.664,0,0,1,.661-.661h.41A.664.664,0,0,1,19.363,4.891Zm-13.99,0v.895a.176.176,0,0,1-.176.176.174.174,0,0,1-.176-.176V4.891a.309.309,0,0,0-.309-.309H4.3a.309.309,0,0,0-.309.309V6.9a.546.546,0,0,0,.546.546.176.176,0,1,1,0,.352.9.9,0,0,1-.9-.9V4.891A.664.664,0,0,1,4.3,4.23h.41A.664.664,0,0,1,5.373,4.891ZM23,9.836a.176.176,0,0,1-.176.176H.176A.176.176,0,0,1,0,9.836.174.174,0,0,1,.176,9.66H22.824A.174.174,0,0,1,23,9.836ZM19.144,17.5a.665.665,0,0,1-.19.525l-.9.9a1.766,1.766,0,0,0-.521,1.261v1.808a.174.174,0,0,1-.176.176.176.176,0,0,1-.176-.176V20.186A2.106,2.106,0,0,1,17.8,18.68l.9-.906a.3.3,0,0,0-.043-.467.317.317,0,0,0-.413.05l-1.9,1.9a1.1,1.1,0,0,1-1.488-.029l-1.872-1.876a.332.332,0,0,0-.413-.054.3.3,0,0,0-.133.23.292.292,0,0,0,.09.241l.906.909a2.118,2.118,0,0,1,.625,1.506v1.8a.176.176,0,0,1-.176.176.174.174,0,0,1-.176-.176v-1.8a1.776,1.776,0,0,0-.525-1.261l-.906-.906a.659.659,0,0,1,.093-1.01.677.677,0,0,1,.87.093l1.872,1.876a.727.727,0,0,0,.988.025l1.9-1.9a.657.657,0,0,1,1.143.392Z" fill="#8b1201"/>
    <path id="Path_17236" data-name="Path 17236" d="M40.931,36.31a1.439,1.439,0,1,0,1.438,1.438A1.44,1.44,0,0,0,40.931,36.31Zm0,2.523a1.084,1.084,0,1,1,1.082-1.085A1.089,1.089,0,0,1,40.931,38.833Z" transform="translate(-25.298 -20.551)" fill="#8b1201"/>
    <path id="Path_17237" data-name="Path 17237" d="M42.647,38.382A1.084,1.084,0,1,1,41.565,37.3,1.086,1.086,0,0,1,42.647,38.382Z" transform="translate(-25.932 -21.185)" fill="#8b1201"/>
    <g id="Group_10184-2" data-name="Group 10184" transform="translate(3.853 21.818)">
      <path id="Path_17238" data-name="Path 17238" d="M26.015,53.346a.174.174,0,0,1-.176.176H10.9a.174.174,0,0,1-.176-.176.176.176,0,0,1,.176-.176H25.835A.175.175,0,0,1,26.015,53.346Z" transform="translate(-10.72 -53.17)" fill="#8b1201"/>
    </g>
    <g id="Group_10185" data-name="Group 10185" transform="translate(6.393 16.729)">
      <path id="Path_17239" data-name="Path 17239" d="M18.142,39.186v5.089a.174.174,0,0,1-.176.176.176.176,0,0,1-.176-.176V39.186a.17.17,0,0,1,.068-.137.268.268,0,0,1,.043-.025.146.146,0,0,1,.068-.014A.173.173,0,0,1,18.142,39.186Z" transform="translate(-17.79 -39.01)" fill="#8b1201"/>
    </g>
    <g id="Group_10186" data-name="Group 10186" transform="translate(10.239 16.725)">
      <path id="Path_17240" data-name="Path 17240" d="M28.842,39.176v5.092a.176.176,0,1,1-.352,0V39.176A.174.174,0,0,1,28.666,39a.184.184,0,0,1,.1.029A.177.177,0,0,1,28.842,39.176Z" transform="translate(-28.49 -39)" fill="#8b1201"/>
    </g>
    <g id="Group_10187" data-name="Group 10187" transform="translate(5.003 16.391)">
      <path id="Path_17241" data-name="Path 17241" d="M20.91,40.945v2.728a.174.174,0,0,1-.176.176.176.176,0,0,1-.176-.176V40.945A2.526,2.526,0,0,0,19.512,38.9a3.157,3.157,0,0,0-.3-.183.429.429,0,0,0-.057-.029,2.482,2.482,0,0,0-1.118-.262H16.788a2.472,2.472,0,0,0-1.125.27.362.362,0,0,0-.054.025,2.351,2.351,0,0,0-.3.187,2.508,2.508,0,0,0-1.035,2.038v2.728a.174.174,0,0,1-.176.176.176.176,0,0,1-.176-.176V40.945a2.851,2.851,0,0,1,1.459-2.5.268.268,0,0,1,.043-.025l.025-.014a2.857,2.857,0,0,1,1.344-.338h1.251a2.847,2.847,0,0,1,1.34.331.428.428,0,0,1,.054.032A2.88,2.88,0,0,1,20.91,40.945Z" transform="translate(-13.92 -38.07)" fill="#8b1201"/>
    </g>
    <g id="Group_10188" data-name="Group 10188" transform="translate(6.311 11.601)">
      <path id="Path_17242" data-name="Path 17242" d="M19.745,24.74a2.183,2.183,0,1,0,2.181,2.185A2.186,2.186,0,0,0,19.745,24.74Zm0,4.007a1.827,1.827,0,1,1,1.826-1.826A1.829,1.829,0,0,1,19.745,28.747Z" transform="translate(-17.56 -24.74)" fill="#8b1201"/>
      <path id="Path_17243" data-name="Path 17243" d="M22.2,27.549a1.827,1.827,0,1,1-1.826-1.829A1.826,1.826,0,0,1,22.2,27.549Z" transform="translate(-18.194 -25.368)" fill="#8b1201"/>
    </g>
  </g>
</svg>
