<svg id="Component_10_1" data-name="Component 10 – 1" xmlns="http://www.w3.org/2000/svg" width="24" height="24" viewBox="0 0 24 24">
  <path id="Path_1" data-name="Path 1" d="M0,0H24V24H0Z" fill="none"/>
  <path id="Path_16845" data-name="Path 16845" d="M22.333,2.063a14.147,14.147,0,0,1-.858,4.47L17.862,2.92a13.962,13.962,0,0,1,4.471-.858Zm-5.193,1.15L21.2,7.277l-.316.61-4.38-4.335c.366-.211.415-.22.632-.339Zm-1.287.723,4.673,4.606a21.007,21.007,0,0,1-8.511,7.7c-.42.21-.843.418-1.288.61-.072.032-.153.06-.226.09L7.453,13.87a21.287,21.287,0,0,1,8.4-9.935Zm-.361,3.5a1.6,1.6,0,1,0,1.129.474,1.6,1.6,0,0,0-1.129-.474Zm0,.723a.889.889,0,0,1,.632.249.874.874,0,0,1,0,1.242.9.9,0,0,1-1.264,0,.874.874,0,0,1,0-1.243.889.889,0,0,1,.632-.248Zm-7.068.249A4.037,4.037,0,0,1,9.6,8.632c-.281.386-.547.8-.814,1.22-.174.266-.357.543-.519.813q-.369.633-.7,1.288c-.157.3-.288.6-.429.9-.012.025-.033.043-.045.068a2.167,2.167,0,0,0-2.032-.746,7.524,7.524,0,0,0-2.529,1.2A11.91,11.91,0,0,1,5.76,9.445,5.841,5.841,0,0,1,8.018,8.429a2.052,2.052,0,0,1,.407-.022Zm7.339,6.39a4.337,4.337,0,0,1-.813,3.838,11.874,11.874,0,0,1-3.929,3.229,7.491,7.491,0,0,0,1.2-2.529,2.194,2.194,0,0,0-.744-2.032c.39-.18.782-.358,1.173-.564q.55-.291,1.084-.61A24.082,24.082,0,0,0,15.762,14.8Zm-9.095.366,2.348,2.326L8.5,17.8,6.374,15.7ZM5.313,17.149,3.6,18.865l.361.339,1.694-1.716Zm.7.677L3.258,20.581l.34.339,2.754-2.755Zm.677.7L4.636,20.581l.338.339,2.055-2.055ZM3.258,19.2l-.338.338.338.34.34-.34ZM2.92,20.92l-.34.338.34.34.338-.34Zm1.377,0-.339.338.339.34.339-.34Z" transform="translate(0.668 -0.063)" fill="#8b1201"/>
</svg>
