<svg xmlns="http://www.w3.org/2000/svg" width="28.973" height="60.5" viewBox="0 0 28.973 60.5">
  <g id="Symbols" transform="translate(0 0.596)">
    <g id="Scene_Plants" data-name="Scene/Plants" transform="translate(0 -0.596)">
      <path id="Leaf-Top" d="M13.885,1.216c.374-.161.848.073.621.54-.244.5-1.046.464-1.5.43.045,0,.216-.461.27-.529A1.537,1.537,0,0,1,13.885,1.216ZM9.2,10.31C9.07,10.413,9.193,10.32,9.2,10.31Zm4.98-6.7a.435.435,0,0,1,.016.656,1.083,1.083,0,0,1-.9.157c-.13-.017-.825-.109-.653-.213a.569.569,0,0,0-.069.028q-.027.082-.057.163l.012.008L12.521,4.4a6.325,6.325,0,0,1-.8,1.523,1.521,1.521,0,0,1,.366-.077c.366-.027,1.117.293.685.752-.415.44-1-.085-1.435-.176a20.618,20.618,0,0,1-1.49,1.64.118.118,0,0,1,.069.063,2.931,2.931,0,0,1,.606-.251c.269-.042.816-.048,1,.2.232.3-.046.524-.341.565a3.08,3.08,0,0,1-1.372-.335.135.135,0,0,1-.126-.049l-.026-.01c-.532.521-1.082,1.024-1.628,1.514h.017A1.419,1.419,0,0,1,8.5,9.587a1.206,1.206,0,0,1,1.078.229.681.681,0,0,1,.041,1.01c-.64.552-1.467-.825-1.772-.9-.555.493-1.138.951-1.729,1.4a1.017,1.017,0,0,1,.2-.03c.558-.024,1.826.718,1.109,1.346-.624.547-1.253-.6-1.711-1.015-.557.417-1.117.83-1.663,1.261a1.533,1.533,0,0,1,.864.05c.31.111.807.373.585.785s-.826.191-1.138.039a8.657,8.657,0,0,0-.8-.473A10.413,10.413,0,0,0,1.32,15.825,9.043,9.043,0,0,0,.433,17.78a5.862,5.862,0,0,0-.392,1.743,6.775,6.775,0,0,1,.79-3.53,8.662,8.662,0,0,1,1.8-2.437c-.145-.521-1.554-1.335-.663-1.767.473-.228.922.214,1,.662a1.86,1.86,0,0,1-.2.973q.342-.325.706-.627c.335-.278.677-.547,1.022-.813-.517-.534-.955-2.007-.213-2.206,1.1-.292.472,1.654.378,2.019a.059.059,0,0,1-.049-.021c0,.034.009.071.016.108.66-.505,1.329-1,1.978-1.518a2.819,2.819,0,0,1-.2-.291,3.153,3.153,0,0,1-.386-.624c-.156-.355-.294-.917.178-1.1.513-.2.718.441.7.814a4.91,4.91,0,0,1-.145.75c-.016.078.01.436-.09.277a.748.748,0,0,1,0,.126q.175-.14.347-.284A.133.133,0,0,1,6.994,10a.13.13,0,0,1,.193-.112q.228-.193.451-.393c.314-.283.633-.574.951-.871-.062-.059-.032-.134-.09-.2s-.176-.1-.245-.159a1.718,1.718,0,0,1-.409-.557c-.161-.335-.356-1.03.174-1.158.546-.132.783.539.8.952a10.4,10.4,0,0,1-.156,1.053C9.245,8,9.824,7.426,10.353,6.837a1.93,1.93,0,0,1-.642-.424c-.2-.214-.51-.68-.129-.9.339-.194.727.132.851.436a4.123,4.123,0,0,1,.073.713c.219-.25.429-.5.625-.755q.2-.253.37-.52a.244.244,0,0,1-.069-.074c-.542-.12-1.194-1-.536-1.261.313-.124.629.182.767.426a3.121,3.121,0,0,1,.1.489A10.1,10.1,0,0,0,12.575,3.1a.118.118,0,0,1-.087-.114,1.624,1.624,0,0,1-.63-.6c-.106-.185-.291-.6.052-.686.447-.106.688.574.707.9,0,.038,0,.149-.011.25a.15.15,0,0,1,.046,0c.123-.4.225-.812.311-1.222-.236-.089-.212-1.34-.042-1.51.379-.38.6.209.565.512a2,2,0,0,1-.433.954c-.023.03-.017.028-.02-.015a.086.086,0,0,1-.023.047,5.383,5.383,0,0,1-.009.55,12.62,12.62,0,0,1-.241,1.423q-.039.171-.086.338a2.809,2.809,0,0,1,.574-.324A.984.984,0,0,1,14.184,3.612ZM0,19.475a.878.878,0,0,0,.1.415A2.267,2.267,0,0,1,0,19.475Z" transform="translate(7.901 0.762) rotate(-3)" fill="#a5493c" fill-rule="evenodd" opacity="0.2"/>
      <g id="Plant-Left" transform="translate(0 5.358)" opacity="0.5">
        <path id="Leaf" d="M119.773,90.435c.436-.622,1.246-2.2,1.86-2.425.4-.143.28,1.338.285,1.621a23.678,23.678,0,0,1-.219,3.262,12.747,12.747,0,0,1-2.072,5.358,6.765,6.765,0,0,1-2.074,2.256c-.409.246-.9.287-1.3.5-.47.247-.214.047-.426.537a11.161,11.161,0,0,0-.524,2.282c-.625,3.33-2.137,20.93-1.875,24.317.023.3-.4.372-.416.005-.111-1.943.85-15.4,1.335-19.8a72.364,72.364,0,0,1,1.468-9.811,41.217,41.217,0,0,1,2.572-5.791A20.483,20.483,0,0,1,119.773,90.435Z" transform="translate(-101.265 -78.862)" fill="#a5493c" fill-rule="evenodd"/>
        <path id="Leaf-2" data-name="Leaf" d="M119.428,317.237a1.034,1.034,0,1,1-.159,1.486c-.217.265-.42.541-.615.775-.595.712-1.157,1.441-1.694,2.187-1.116,1.55-2.072,3.187-3.072,4.794-.987,1.586-1.966,3.181-2.86,4.807A16.107,16.107,0,0,0,109,335.8a22.791,22.791,0,0,1,3.666-9.108,32.146,32.146,0,0,1,6.52-8.072A.967.967,0,0,1,119.428,317.237Z" transform="translate(-97.681 -284.081)" fill="#a5493c" fill-rule="evenodd"/>
        <path id="Leaf-3" data-name="Leaf" d="M.2,244c.635.124,1.674,1.562,2.2,2.109a20.515,20.515,0,0,1,1.72,2.071,35.035,35.035,0,0,1,3.043,4.963,46.126,46.126,0,0,1,3.385,8.81,36.343,36.343,0,0,1,1.027,5.779c.037.366.42,3.187-.133,3.263-.5.068-.344-2.142-.368-2.443a39.05,39.05,0,0,0-2.213-9.89,11.272,11.272,0,0,0-.868-2.176c-.283-.451,0-.294-.5-.465-.428-.147-.915-.111-1.353-.291a6.73,6.73,0,0,1-2.381-1.909,12.831,12.831,0,0,1-2.862-4.979,23.973,23.973,0,0,1-.722-3.194C.133,245.371-.211,243.923.2,244Z" transform="translate(0 -218.662)" fill="#a5493c" fill-rule="evenodd"/>
        <path id="Leaf-4" data-name="Leaf" d="M13.46,1.424a57.585,57.585,0,0,1,5.631,13.33c.77,2.8,1.308,5.67,1.842,8.521a98.878,98.878,0,0,1,1.834,13.32c.224,4.518.667,9.73-.812,14.082.739-4.418.035-9.122-.089-13.567-.06-2.122-.232-4.224-.458-6.334-.22-2.047-.578-4.084-.913-6.115q-.244-1.483-.508-2.963c-.052-.294-.074-1.168-.261-1.369s-1.147-.285-1.448-.434A7.776,7.776,0,0,1,16.6,18.721a13.433,13.433,0,0,1-2.474-3.095A16.692,16.692,0,0,1,12,6.957c.006-.577.934-6.79.561-6.875Q12.6.042,12.626,0,13.049.709,13.46,1.424Z" transform="translate(-10.754)" fill="#a5493c" fill-rule="evenodd"/>
        <path id="Leaf-5" data-name="Leaf" d="M127.119,154.4c.037-.053.277-.424.156-.4.246-.048-.339.409.275.128-.292.275-.123.633-.119,1a8.988,8.988,0,0,1-.208,1.787,12.256,12.256,0,0,1-.833,2.7,12.1,12.1,0,0,1-3.978,4.882,7.978,7.978,0,0,1-2.621,1.049c-.605.169-.653.482-.974,1.069-.669,1.223-1.325,2.441-1.915,3.705-.7,1.51-1.388,3.021-2.032,4.557A72.723,72.723,0,0,0,110,190.969a33.217,33.217,0,0,1,1.688-9.752,58.2,58.2,0,0,1,2.564-6.625,8.383,8.383,0,0,0,.687-1.779,3.278,3.278,0,0,0-.24-1.224,12.809,12.809,0,0,1-.019-5.206,3.4,3.4,0,0,1,3.227-2.965,7.9,7.9,0,0,0,2.1-.341c.657-.305.927-1.308,1.3-1.952a26.55,26.55,0,0,1,3.563-4.846,11.554,11.554,0,0,1,1.218-1.121A5.953,5.953,0,0,0,127.119,154.4Z" transform="translate(-98.577 -138.008)" fill="#a5493c" fill-rule="evenodd"/>
        <path id="Base" d="M76.31,476h6.378a.519.519,0,0,1,.514.595l-.493,3.343a2.077,2.077,0,0,1-2.055,1.774h-2.31a2.077,2.077,0,0,1-2.055-1.774l-.493-3.343A.519.519,0,0,1,76.31,476Z" transform="translate(-67.92 -426.569)" fill="#a5493c" fill-rule="evenodd"/>
      </g>
    </g>
  </g>
</svg>
