<svg xmlns="http://www.w3.org/2000/svg" width="100.038" height="76" viewBox="0 0 100.038 76">
  <g id="Group_10396" data-name="Group 10396" transform="translate(-1130.998 -2091.502)">
    <path id="Union_3" data-name="Union 3" d="M21360.822,11535.312A56.413,56.413,0,0,1,21347,11537q-2.4,0-4.729-.191a37,37,0,0,1-3.773.191c-18.5,0-33.5-13.656-33.5-30.5s15-30.5,33.5-30.5a37.287,37.287,0,0,1,3.773.191q2.326-.189,4.729-.191c20.914,0,38.262,11.1,41.469,25.634,5.824,3.669,9.531,9.188,9.531,15.362,0,11.047-11.863,20-26.5,20A33.857,33.857,0,0,1,21360.822,11535.312Z" transform="translate(-20174 -9377)" fill="#fae7e7"/>
    <g id="Layer_2" data-name="Layer 2" transform="translate(1148.965 2085.469)">
      <path id="Path_17572" data-name="Path 17572" d="M6,38.081V55.176a19.018,19.018,0,0,0,9.762,16.63l2.916,1.627V79.92a2.113,2.113,0,0,0,2.113,2.113H37.7A2.113,2.113,0,0,0,39.81,79.92V64.093c0-5.663-.465-7.755-3.529-10.84l-5.219-5.24a7.649,7.649,0,0,0-9.572-.718L19.377,36.729A6.741,6.741,0,0,0,6,38.081Zm9.234-.423,3.191,15.89v.74a6.021,6.021,0,0,0,0,.613,3.081,3.081,0,0,0,.254.824l.169.507a7.226,7.226,0,0,0,.486.887,2.725,2.725,0,0,0,.19.338,7.227,7.227,0,0,0,.887,1.1h0l5.05,5.05a2.122,2.122,0,1,0,3-3l-5.05-5.05a3.17,3.17,0,0,1,0-4.48,3.233,3.233,0,0,1,4.48,0l5.219,5.24c1.923,1.923,2.3,2.726,2.3,7.839v13.65H22.906V72.186a2.113,2.113,0,0,0-1.078-1.838l-3.994-2.113a14.791,14.791,0,0,1-7.607-13.059V38.081a2.536,2.536,0,0,1,5.008-.423ZM75.31,31.32A6.72,6.72,0,0,0,68.7,36.75L66.583,47.316a7.628,7.628,0,0,0-9.572.718l-5.219,5.24c-3.064,3.064-3.529,5.156-3.529,10.819V79.92a2.113,2.113,0,0,0,2.113,2.113h16.9a2.113,2.113,0,0,0,2.113-2.113V73.433l2.916-1.627a19.018,19.018,0,0,0,9.762-16.63V38.081A6.783,6.783,0,0,0,75.31,31.32Zm2.536,23.857a14.791,14.791,0,0,1-7.607,12.953l-3.994,2.113a2.113,2.113,0,0,0-1.078,1.838v5.726H52.489V64.093c0-5.114.38-5.917,2.3-7.839l5.219-5.24a3.233,3.233,0,0,1,4.48,0,3.17,3.17,0,0,1,0,4.48l-5.05,5.05a2.122,2.122,0,0,0,3,3l5.05-5.05a9.151,9.151,0,0,0,.887-1.1,3.673,3.673,0,0,0,.211-.4,6.192,6.192,0,0,0,.444-.824,5.278,5.278,0,0,0,.19-.528,4.427,4.427,0,0,1,.232-.824,5.748,5.748,0,0,0,0-.634c0-.232,0-.444,0-.676l3.381-15.848a2.536,2.536,0,0,1,5.008.423ZM42.557,51.837a2.113,2.113,0,0,0,2.958,0L67.28,30.348a14.2,14.2,0,0,0,0-20.159,14.559,14.559,0,0,0-20.37,0l-2.874,2.768-2.874-2.768a14.559,14.559,0,0,0-20.37,0,14.2,14.2,0,0,0,0,20.222ZM23.772,13.147a10.291,10.291,0,0,1,14.432,0l4.353,4.226a2.113,2.113,0,0,0,2.958,0l4.353-4.226a10.312,10.312,0,0,1,14.432,0,9.931,9.931,0,0,1,0,14.179L44.036,47.358,23.772,27.326a9.931,9.931,0,0,1,0-14.179Z" transform="translate(0 0)" fill="#8b1201"/>
      <path id="Path_17573" data-name="Path 17573" d="M22.113,23.565h4.226v4.226a2.113,2.113,0,0,0,4.226,0V23.565h4.226a2.113,2.113,0,0,0,0-4.226H30.565V15.113a2.113,2.113,0,1,0-4.226,0v4.226H22.113a2.113,2.113,0,0,0,0,4.226Z" transform="translate(15.584 7.754)" fill="#8b1201"/>
    </g>
  </g>
</svg>
