<svg xmlns="http://www.w3.org/2000/svg" width="99.167" height="76" viewBox="0 0 99.167 76">
  <g id="Group_10397" data-name="Group 10397" transform="translate(-218.998 -2294.502)">
    <path id="Union_2" data-name="Union 2" d="M21360.822,11535.312A56.413,56.413,0,0,1,21347,11537q-2.4,0-4.729-.191a37,37,0,0,1-3.773.191c-18.5,0-33.5-13.656-33.5-30.5s15-30.5,33.5-30.5a37.287,37.287,0,0,1,3.773.191q2.326-.189,4.729-.191c20.914,0,38.262,11.1,41.469,25.634,5.824,3.669,9.531,9.188,9.531,15.362,0,11.047-11.863,20-26.5,20A33.857,33.857,0,0,1,21360.822,11535.312Z" transform="translate(-21086 -9174)" fill="#fae7e7"/>
    <g id="Group_10371" data-name="Group 10371" transform="translate(241.758 2293.042)">
      <g id="Group_10361" data-name="Group 10361" transform="translate(2.282 1.46)">
        <g id="Group_10360" data-name="Group 10360">
          <g id="Group_10348" data-name="Group 10348" transform="translate(6.909)">
            <path id="Path_17574" data-name="Path 17574" d="M14.1,51.538a.565.565,0,0,1-.5-.306A47.913,47.913,0,0,1,8.38,29.5C8.38,12.994,17.67,1.46,30.972,1.46S53.552,12.994,53.552,29.5a47.834,47.834,0,0,1-5.212,21.73.563.563,0,1,1-1-.521A46.793,46.793,0,0,0,52.419,29.5c0-15.839-8.815-26.908-21.447-26.908S9.513,13.662,9.513,29.5A46.873,46.873,0,0,0,14.6,50.71a.558.558,0,0,1-.238.759A.526.526,0,0,1,14.1,51.538Z" transform="translate(-8.38 -1.46)" fill="#8b1201"/>
          </g>
          <g id="Group_10349" data-name="Group 10349" transform="translate(57.266 65.438)">
            <path id="Path_17575" data-name="Path 17575" d="M53.386,64.783a.529.529,0,0,1-.193-.034.557.557,0,0,1-.329-.725,4,4,0,0,0,.238-1.1l.193-3.172a.537.537,0,0,1,.6-.532.562.562,0,0,1,.533.6l-.193,3.172a4.678,4.678,0,0,1-.306,1.428A.6.6,0,0,1,53.386,64.783Z" transform="translate(-52.826 -59.217)" fill="#8b1201"/>
          </g>
          <g id="Group_10350" data-name="Group 10350" transform="translate(0 39.245)">
            <path id="Path_17576" data-name="Path 17576" d="M56.232,70.5H7.322a4.734,4.734,0,0,1-4.713-4.441l-.295-4.883A13.373,13.373,0,0,1,3.367,54.76c3-6.39,10.049-8.6,15.2-10.208a30.613,30.613,0,0,0,3.943-1.4c2.764-1.394,3.308-4.679,3.376-6.5a.554.554,0,0,1,.589-.544.568.568,0,0,1,.544.589c-.091,2.073-.725,5.812-4,7.478a30.576,30.576,0,0,1-4.113,1.473C13.961,47.192,7.186,49.322,4.4,55.247a12.245,12.245,0,0,0-.952,5.869L3.741,66a3.6,3.6,0,0,0,3.58,3.376H56.232a.613.613,0,0,1,.7.465.534.534,0,0,1-.419.646A2.275,2.275,0,0,1,56.232,70.5Z" transform="translate(-2.282 -36.099)" fill="#8b1201"/>
          </g>
          <g id="Group_10351" data-name="Group 10351" transform="translate(34.237 38.85)">
            <path id="Path_17577" data-name="Path 17577" d="M52.418,51.317a.522.522,0,0,1-.374-.147c-3.286-2.946-7.772-4.351-11.386-5.484A31.675,31.675,0,0,1,36.533,44.2c-3.456-1.733-4.011-5.688-4.033-7.886a.561.561,0,0,1,.566-.566h0a.568.568,0,0,1,.566.566c.023,1.949.487,5.427,3.4,6.888a30.661,30.661,0,0,0,3.954,1.416c3.716,1.167,8.339,2.617,11.806,5.722a.571.571,0,0,1,.045.8A.611.611,0,0,1,52.418,51.317Z" transform="translate(-32.5 -35.75)" fill="#8b1201"/>
          </g>
          <g id="Group_10352" data-name="Group 10352" transform="translate(15.973 12.656)">
            <path id="Path_17578" data-name="Path 17578" d="M29.534,41.509c-7.251,0-13.154-6.787-13.154-15.137a38.68,38.68,0,0,1,1.983-11.692,2.951,2.951,0,0,1,2.107-1.949,3.272,3.272,0,0,1,3.014.759A13.35,13.35,0,0,0,34.145,17.23c2.742-.306,4.883.306,6.379,1.8,2.572,2.583,2.209,6.877,2.164,7.342C42.676,34.723,36.774,41.509,29.534,41.509ZM21.286,13.774a2.057,2.057,0,0,0-.521.068,1.822,1.822,0,0,0-1.314,1.212A37.54,37.54,0,0,0,17.524,26.4c0,7.7,5.393,13.981,12.021,13.981s12.01-6.3,12.01-14.026v-.068c0-.045.431-4.158-1.847-6.447-1.235-1.235-3.059-1.733-5.45-1.473A14.4,14.4,0,0,1,22.7,14.329,2.065,2.065,0,0,0,21.286,13.774Z" transform="translate(-16.38 -12.631)" fill="#8b1201"/>
          </g>
          <g id="Group_10355" data-name="Group 10355" transform="translate(15.632 44.216)">
            <g id="Group_10353" data-name="Group 10353" transform="translate(0 0.011)">
              <path id="Path_17579" data-name="Path 17579" d="M23.9,51.615h-.023a2.846,2.846,0,0,1-2.062-.884L16.239,45a.569.569,0,1,1,.816-.793l5.574,5.733a1.759,1.759,0,0,0,1.258.544H23.9a1.712,1.712,0,0,0,1.246-.521l3.931-3.92-6.22-4.521a.568.568,0,1,1,.668-.918l6.753,4.917a.58.58,0,0,1,.068.861l-4.4,4.385A2.879,2.879,0,0,1,23.9,51.615Z" transform="translate(-16.079 -40.496)" fill="#8b1201"/>
            </g>
            <g id="Group_10354" data-name="Group 10354" transform="translate(13.298)">
              <path id="Path_17580" data-name="Path 17580" d="M34.426,51.616a2.9,2.9,0,0,1-2.051-.85l-4.4-4.4a.54.54,0,0,1-.159-.442.6.6,0,0,1,.227-.419L34.8,40.592a.568.568,0,0,1,.668.918l-6.22,4.521,3.931,3.931a1.777,1.777,0,0,0,1.246.521h.011a1.767,1.767,0,0,0,1.258-.533L41.3,44.2a.569.569,0,0,1,.816.793L36.51,50.744a2.88,2.88,0,0,1-2.062.872Z" transform="translate(-27.816 -40.486)" fill="#8b1201"/>
            </g>
          </g>
          <g id="Group_10358" data-name="Group 10358" transform="translate(21.672 23.453)">
            <g id="Group_10356" data-name="Group 10356">
              <path id="Path_17581" data-name="Path 17581" d="M24.628,23.293H21.976a.566.566,0,0,1,0-1.133h2.651a.566.566,0,1,1,0,1.133Z" transform="translate(-21.41 -22.16)" fill="#8b1201"/>
            </g>
            <g id="Group_10357" data-name="Group 10357" transform="translate(11.16)">
              <path id="Path_17582" data-name="Path 17582" d="M34.478,23.293H31.826a.566.566,0,0,1,0-1.133h2.651a.566.566,0,0,1,0,1.133Z" transform="translate(-31.26 -22.16)" fill="#8b1201"/>
            </g>
          </g>
          <g id="Group_10359" data-name="Group 10359" transform="translate(26.261 33.525)">
            <path id="Path_17583" data-name="Path 17583" d="M28.349,33.735a3.059,3.059,0,0,1-2.844-1.9.564.564,0,1,1,1.042-.431,1.945,1.945,0,0,0,3.6,0,.564.564,0,0,1,1.042.431A3.059,3.059,0,0,1,28.349,33.735Z" transform="translate(-25.461 -31.051)" fill="#8b1201"/>
          </g>
        </g>
      </g>
      <g id="Group_10370" data-name="Group 10370" transform="translate(47.77 45.162)">
        <g id="Group_10369" data-name="Group 10369">
          <g id="Group_10368" data-name="Group 10368">
            <g id="Group_10367" data-name="Group 10367">
              <g id="Group_10366" data-name="Group 10366">
                <g id="Group_10362" data-name="Group 10362" transform="translate(5.616 22.646)">
                  <path id="Path_17584" data-name="Path 17584" d="M53.078,69.673A2.848,2.848,0,0,1,50.6,68.211l-3.138-5.688a.564.564,0,0,1,.227-.77.554.554,0,0,1,.77.227l3.138,5.676a1.683,1.683,0,0,0,2.277.668,1.664,1.664,0,0,0,.8-1.008,1.685,1.685,0,0,0-.147-1.28l-2.844-5.178a.568.568,0,1,1,1-.544l2.844,5.178a2.828,2.828,0,0,1,.249,2.141,2.823,2.823,0,0,1-2.7,2.039Z" transform="translate(-47.388 -60.02)" fill="#8b1201"/>
                </g>
                <g id="Group_10363" data-name="Group 10363" transform="translate(20.604 5.072)">
                  <path id="Path_17585" data-name="Path 17585" d="M65.538,53.846a.531.531,0,0,1-.4-.17.561.561,0,0,1,0-.8.73.73,0,0,1,.181-.125,2.4,2.4,0,0,0,1.11-1.858,4.776,4.776,0,0,0-.623-2.9c-1.02-1.847-2.957-2.821-4.249-2.153-.011,0-.011.011-.023.011a.537.537,0,0,1-.782-.057.587.587,0,0,1,.057-.816.473.473,0,0,1,.091-.068c1.937-1.065,4.543.091,5.891,2.538a5.993,5.993,0,0,1,.759,3.592,3.46,3.46,0,0,1-1.7,2.708h0c-.023.011-.034.023-.057.034A.526.526,0,0,1,65.538,53.846Z" transform="translate(-60.617 -44.51)" fill="#8b1201"/>
                </g>
                <g id="Group_10364" data-name="Group 10364" transform="translate(6.262)">
                  <path id="Path_17586" data-name="Path 17586" d="M53.75,62.916a.576.576,0,0,1-.5-.295l-5.223-9.483a.577.577,0,0,1,.023-.589L55.7,41.355a3.237,3.237,0,0,1,5.45.363l8.781,15.93a3.251,3.251,0,0,1-2.595,4.8h-.023l-13.55.476C53.761,62.916,53.761,62.916,53.75,62.916ZM67.3,61.873ZM49.184,52.889l4.894,8.871,13.188-.453a2.1,2.1,0,0,0,1.665-3.116l-8.781-15.93a2.109,2.109,0,0,0-3.535-.249Z" transform="translate(-47.958 -40.033)" fill="#8b1201"/>
                </g>
                <g id="Group_10365" data-name="Group 10365" transform="translate(0 12.249)">
                  <path id="Path_17587" data-name="Path 17587" d="M48.423,64.05a5.988,5.988,0,0,1-2.9-11.228l3.467-1.9a.557.557,0,0,1,.77.227l5.223,9.483a.564.564,0,0,1-.227.77L51.29,63.3A5.824,5.824,0,0,1,48.423,64.05Zm.612-11.862-2.968,1.631a4.848,4.848,0,1,0,4.668,8.5L53.7,60.685Z" transform="translate(-42.431 -50.844)" fill="#8b1201"/>
                </g>
              </g>
            </g>
          </g>
        </g>
      </g>
    </g>
  </g>
</svg>
