<svg xmlns="http://www.w3.org/2000/svg" width="1307.979" height="740.243" viewBox="0 0 1307.979 740.243">
  <g id="Group_10374" data-name="Group 10374" transform="translate(-612.021 22.243)">
    <path id="Path_17526" data-name="Path 17526" d="M-20665-11476s291.836,42.6,143.553,272.8,413.115,99.592,413.115,99.592" transform="translate(21278.539 11464.146)" fill="none" stroke="#fff" stroke-width="21"/>
    <rect id="Rectangle_6764" data-name="Rectangle 6764" width="754" height="718" transform="translate(1166)" fill="#d9c2be"/>
    <path id="Path_17549" data-name="Path 17549" d="M-21684.451-11172.033s17.115-3.013,8.275,9.163-27.215,12.7-27.215,12.7.473-15.206,4.539-23.274,5.236-10.416,9.381-9.234S-21684.451-11172.033-21684.451-11172.033Z" transform="translate(23470.891 11459.564)" fill="#c29f2e"/>
    <path id="Path_17550" data-name="Path 17550" d="M-21684.451-11172.033s17.115-3.013,8.275,9.163-27.215,12.7-27.215,12.7.473-15.206,4.539-23.274,5.236-10.416,9.381-9.234S-21684.451-11172.033-21684.451-11172.033Z" transform="matrix(0.259, -0.966, 0.966, 0.259, 17916.598, -17808.377)" fill="#843939"/>
    <path id="Path_17551" data-name="Path 17551" d="M-21684.451-11172.033s17.115-3.013,8.275,9.163-27.215,12.7-27.215,12.7.473-15.206,4.539-23.274,5.236-10.416,9.381-9.234S-21684.451-11172.033-21684.451-11172.033Z" transform="matrix(0.259, -0.966, 0.966, 0.259, 17545.785, -17731.367)" fill="#9b341c"/>
    <path id="Path_17552" data-name="Path 17552" d="M-21684.451-11172.033s17.115-3.013,8.275,9.163-27.215,12.7-27.215,12.7.473-15.206,4.539-23.274,5.236-10.416,9.381-9.234S-21684.451-11172.033-21684.451-11172.033Z" transform="matrix(-0.848, -0.53, 0.53, -0.848, -11607.527, -20293.334)" fill="#c39f2e"/>
    <path id="Path_17553" data-name="Path 17553" d="M-21684.451-11172.033s17.115-3.013,8.275,9.163-27.215,12.7-27.215,12.7.473-15.206,4.539-23.274,5.236-10.416,9.381-9.234S-21684.451-11172.033-21684.451-11172.033Z" transform="matrix(0.087, -0.996, 0.996, 0.087, 13924.546, -20293.043)" fill="#2fa888"/>
    <path id="Path_17554" data-name="Path 17554" d="M-21696.215-11178.822s6.482-1.141,3.133,3.472-10.309,4.813-10.309,4.813.18-5.762,1.719-8.817,1.984-3.946,3.555-3.5S-21696.215-11178.822-21696.215-11178.822Z" transform="matrix(0.259, -0.966, 0.966, 0.259, 17798.438, -17774.881)" fill="#fff"/>
    <path id="Path_17555" data-name="Path 17555" d="M-21696.215-11178.822s6.482-1.141,3.133,3.472-10.309,4.813-10.309,4.813.18-5.762,1.719-8.817,1.984-3.946,3.555-3.5S-21696.215-11178.822-21696.215-11178.822Z" transform="matrix(0.259, -0.966, 0.966, 0.259, 17604.438, -17675.281)" fill="#8e3d3a"/>
    <path id="Path_17556" data-name="Path 17556" d="M-21696.215-11178.822s6.482-1.141,3.133,3.472-10.309,4.813-10.309,4.813.18-5.762,1.719-8.817,1.984-3.946,3.555-3.5S-21696.215-11178.822-21696.215-11178.822Z" transform="matrix(0.259, -0.966, 0.966, 0.259, 17262.438, -17550.762)" fill="#8b1201"/>
    <path id="Path_17557" data-name="Path 17557" d="M-21692.66-11176.77s9.7-1.707,4.691,5.192-15.422,7.2-15.422,7.2.268-8.616,2.57-13.187,2.969-5.9,5.316-5.233S-21692.66-11176.77-21692.66-11176.77Z" transform="matrix(0.259, -0.966, 0.966, 0.259, 17789.543, -17655.783)" fill="#76b0bd"/>
    <path id="Path_17558" data-name="Path 17558" d="M-21692.66-11176.77s9.7-1.707,4.691,5.192-15.422,7.2-15.422,7.2.268-8.616,2.57-13.187,2.969-5.9,5.316-5.233S-21692.66-11176.77-21692.66-11176.77Z" transform="matrix(0.966, 0.259, -0.259, 0.966, 19948.219, 17066.461)" fill="#480900"/>
  </g>
</svg>
