<svg xmlns="http://www.w3.org/2000/svg" width="85.135" height="83.162" viewBox="0 0 85.135 83.162">
  <g id="Group_10347" data-name="Group 10347" transform="translate(-10 -15.7)">
    <path id="Path_17566" data-name="Path 17566" d="M256,120.662,295.972,106.3v5.4L256,126.511Z" transform="translate(-203.433 -74.923)" fill="#fae7e7"/>
    <path id="Path_17567" data-name="Path 17567" d="M427.044,352.735a7.241,7.241,0,0,1-2.959,6.195,3.974,3.974,0,0,1-4.326,0,7.241,7.241,0,0,1-2.959-6.195c0-3.772,2.284-6.835,5.122-6.835S427.044,348.963,427.044,352.735Z" transform="translate(-336.408 -273.063)" fill="#8c1201"/>
    <path id="Path_17568" data-name="Path 17568" d="M94.235,29.214,53.087,15.8a1.35,1.35,0,0,0-1.038,0L10.9,29.214a1.3,1.3,0,0,0-.9,1.229v7.233a1.31,1.31,0,0,0,.848,1.211l17.183,6.368v17.6a1.284,1.284,0,0,0,.311.848,29.686,29.686,0,0,0,6.368,5.243,33.6,33.6,0,0,0,17.84,5.191H52.6a33.585,33.585,0,0,0,17.823-5.191A28.551,28.551,0,0,0,76.793,63.7a1.284,1.284,0,0,0,.311-.848v-17.6l7.112-2.63v30.2a1.3,1.3,0,0,0,2.6,0V41.656l7.475-2.769a1.31,1.31,0,0,0,.848-1.211V30.443A1.3,1.3,0,0,0,94.235,29.214ZM74.509,62.351a29.552,29.552,0,0,1-5.537,4.43A30.969,30.969,0,0,1,52.6,71.522H52.55a30.933,30.933,0,0,1-16.387-4.741,28.363,28.363,0,0,1-5.537-4.43V46.224l2.7,1L51.91,54.114a1.362,1.362,0,0,0,.64.173h.069a1.274,1.274,0,0,0,.64-.173l21.266-7.891V62.351ZM92.539,36.776,85.5,39.389,52.758,27.968a1.3,1.3,0,0,0-.865,2.457L81.655,40.808l-6.333,2.336L52.567,51.588,29.778,43.144,12.6,36.776V31.395L52.567,18.382,92.539,31.395Z" fill="#8b1201"/>
    <path id="Path_17569" data-name="Path 17569" d="M427.127,434.2H416.9l2.959-13a3.974,3.974,0,0,0,4.326,0Z" transform="translate(-336.491 -335.333)" fill="#fae6e7"/>
    <path id="Path_17570" data-name="Path 17570" d="M25,106.3l39.972,14.362v5.849L25,111.7Z" transform="translate(-12.404 -74.923)" fill="#fae7e7"/>
    <path id="Path_17571" data-name="Path 17571" d="M173,202.357l-17.287,8.012a11.435,11.435,0,0,1-9.379.1L129.1,202.946V192.2l21.907,8.046,21.976-8.046v10.157Z" transform="translate(-98.491 -145.959)" fill="#fae7e7"/>
  </g>
</svg>
